M48
INCH,TZ
T1C0.030
T2C0.032
T3C0.039
T4C0.040
%
G90
G05
T1
X24500Y-36500
X24500Y-38500
T2
X11750Y-40750
X11750Y-42750
X11750Y-44000
X11750Y-45000
X11750Y-46000
X11750Y-47000
X11750Y-49000
X11750Y-50000
X11750Y-52000
X13250Y-36000
X13250Y-37000
X14750Y-40750
X14750Y-42750
X14750Y-44000
X14750Y-45000
X14750Y-46000
X14750Y-47000
X14750Y-49000
X14750Y-50000
X14750Y-52000
X15650Y-47500
X15650Y-48500
X15650Y-50500
X15650Y-51500
X15750Y-40500
X15750Y-43500
X16500Y-36000
X16500Y-37000
X17000Y-43500
X17000Y-46250
X17000Y-49000
X18000Y-35250
X18000Y-38250
X18000Y-43500
X18000Y-46250
X18000Y-49000
X19500Y-36250
X19500Y-37250
X19500Y-38250
X19500Y-39250
X19500Y-40250
X19500Y-41250
X19500Y-42250
X19500Y-43250
X19500Y-44250
X19500Y-46500
X19500Y-47500
X19500Y-48500
X19500Y-49500
X22500Y-36250
X22500Y-37250
X22500Y-38250
X22500Y-39250
X22500Y-40250
X22500Y-41250
X22500Y-42250
X22500Y-43250
X22500Y-44250
X22500Y-46500
X22500Y-47500
X22500Y-48500
X22500Y-49500
X23750Y-40250
X23750Y-41500
X23750Y-44500
X24750Y-40250
X25000Y-41550
X25000Y-44550
X26200Y-36500
X26200Y-37500
X26200Y-38500
X26200Y-39500
T3
X13016Y-39250
X14000Y-39250
X14984Y-39250
T4
X17000Y-39250
X17000Y-40250
X17000Y-41250
X18000Y-39250
X18000Y-40250
X18000Y-41250
X26250Y-41250
X26250Y-42250
X26250Y-43250
X26250Y-44250
X27250Y-41250
X27250Y-42250
X27250Y-43250
X27250Y-44250
T3
X24687Y-45531G85X24451Y-45531
G05
X24687Y-46516G85X24451Y-46516
G05
X24687Y-48484G85X24451Y-48484
G05
X24687Y-49469G85X24451Y-49469
G05
X26537Y-47382G85X26537Y-47618
G05
T0
M30
